<svg width="275" height="275" viewBox="0 0 275 275" fill="none" xmlns="http://www.w3.org/2000/svg">
<path d="M0 137.5C0 61.5608 61.5608 0 137.5 0C213.439 0 275 61.5608 275 137.5C275 213.439 213.439 275 137.5 275H25C11.1929 275 0 263.807 0 250V137.5Z" fill="white"/>
<path d="M53.7637 122.546V123.186C53.7637 124.213 53.6245 125.134 53.3462 125.951C53.0679 126.767 52.6751 127.463 52.168 128.038C51.6608 128.607 51.0547 129.043 50.3496 129.346C49.6507 129.649 48.8745 129.801 48.021 129.801C47.1737 129.801 46.3975 129.649 45.6924 129.346C44.9935 129.043 44.3874 128.607 43.874 128.038C43.3607 127.463 42.9618 126.767 42.6772 125.951C42.3989 125.134 42.2598 124.213 42.2598 123.186V122.546C42.2598 121.513 42.3989 120.592 42.6772 119.781C42.9556 118.965 43.3483 118.269 43.8555 117.694C44.3688 117.119 44.9749 116.68 45.6738 116.377C46.3789 116.074 47.1551 115.922 48.0024 115.922C48.856 115.922 49.6322 116.074 50.3311 116.377C51.0361 116.68 51.6423 117.119 52.1494 117.694C52.6628 118.269 53.0586 118.965 53.3369 119.781C53.6214 120.592 53.7637 121.513 53.7637 122.546ZM50.9526 123.186V122.527C50.9526 121.81 50.8877 121.179 50.7578 120.635C50.6279 120.091 50.4362 119.633 50.1826 119.262C49.929 118.891 49.6198 118.612 49.2549 118.427C48.89 118.235 48.4725 118.139 48.0024 118.139C47.5324 118.139 47.1149 118.235 46.75 118.427C46.3913 118.612 46.0851 118.891 45.8315 119.262C45.5841 119.633 45.3955 120.091 45.2656 120.635C45.1357 121.179 45.0708 121.81 45.0708 122.527V123.186C45.0708 123.897 45.1357 124.528 45.2656 125.079C45.3955 125.623 45.5872 126.084 45.8408 126.461C46.0944 126.832 46.4036 127.114 46.7686 127.305C47.1335 127.497 47.5509 127.593 48.021 127.593C48.491 127.593 48.9085 127.497 49.2734 127.305C49.6383 127.114 49.9445 126.832 50.1919 126.461C50.4393 126.084 50.6279 125.623 50.7578 125.079C50.8877 124.528 50.9526 123.897 50.9526 123.186ZM60.7124 119.577V129.615H58.0312V119.577H60.7124ZM63.9409 119.577V121.646H54.8491V119.577H63.9409ZM68.1528 119.577V129.615H65.481V119.577H68.1528ZM74.6748 119.577L70.3516 125.858H67.6797L67.355 123.39H69.127L71.2886 119.577H74.6748ZM71.4092 129.615L68.9414 125.376L71.27 124.086L74.9902 129.615H71.4092ZM78.6641 121.507V133.475H75.9922V119.577H78.4692L78.6641 121.507ZM85.019 124.485V124.68C85.019 125.41 84.9325 126.087 84.7593 126.712C84.5923 127.336 84.3449 127.88 84.0171 128.344C83.6893 128.802 83.2811 129.161 82.7925 129.421C82.3101 129.674 81.7534 129.801 81.1226 129.801C80.5103 129.801 79.9784 129.677 79.5269 129.43C79.0754 129.182 78.695 128.836 78.3857 128.391C78.0827 127.939 77.8384 127.417 77.6528 126.823C77.4673 126.229 77.325 125.592 77.2261 124.912V124.401C77.325 123.672 77.4673 123.004 77.6528 122.398C77.8384 121.785 78.0827 121.256 78.3857 120.811C78.695 120.36 79.0723 120.01 79.5176 119.763C79.9691 119.515 80.4979 119.392 81.104 119.392C81.741 119.392 82.3008 119.512 82.7832 119.754C83.2718 119.995 83.68 120.341 84.0078 120.793C84.3418 121.244 84.5923 121.782 84.7593 122.407C84.9325 123.032 85.019 123.724 85.019 124.485ZM82.3379 124.68V124.485C82.3379 124.058 82.3008 123.665 82.2266 123.307C82.1585 122.942 82.0472 122.623 81.8926 122.351C81.7441 122.079 81.5462 121.869 81.2988 121.72C81.0576 121.566 80.7638 121.488 80.4175 121.488C80.0526 121.488 79.7402 121.547 79.4805 121.665C79.2269 121.782 79.0197 121.952 78.8589 122.175C78.6981 122.398 78.5775 122.664 78.4971 122.973C78.4167 123.282 78.3672 123.631 78.3486 124.021V125.311C78.3796 125.768 78.4661 126.18 78.6084 126.545C78.7507 126.903 78.9702 127.188 79.2671 127.398C79.564 127.608 79.9536 127.714 80.436 127.714C80.7886 127.714 81.0854 127.636 81.3267 127.482C81.5679 127.321 81.7627 127.101 81.9111 126.823C82.0658 126.545 82.174 126.223 82.2358 125.858C82.3039 125.493 82.3379 125.1 82.3379 124.68ZM86.2529 124.698V124.504C86.2529 123.768 86.3581 123.09 86.5684 122.472C86.7786 121.847 87.0848 121.306 87.4868 120.848C87.8888 120.391 88.3836 120.035 88.9712 119.781C89.5588 119.522 90.2329 119.392 90.9937 119.392C91.7544 119.392 92.4316 119.522 93.0254 119.781C93.6191 120.035 94.117 120.391 94.519 120.848C94.9272 121.306 95.2365 121.847 95.4468 122.472C95.6571 123.09 95.7622 123.768 95.7622 124.504V124.698C95.7622 125.428 95.6571 126.105 95.4468 126.73C95.2365 127.349 94.9272 127.89 94.519 128.354C94.117 128.811 93.6222 129.167 93.0347 129.421C92.4471 129.674 91.7729 129.801 91.0122 129.801C90.2515 129.801 89.5742 129.674 88.9805 129.421C88.3929 129.167 87.895 128.811 87.4868 128.354C87.0848 127.89 86.7786 127.349 86.5684 126.73C86.3581 126.105 86.2529 125.428 86.2529 124.698ZM88.9248 124.504V124.698C88.9248 125.119 88.9619 125.512 89.0361 125.877C89.1104 126.241 89.2279 126.563 89.3887 126.841C89.5557 127.114 89.7721 127.327 90.0381 127.482C90.304 127.636 90.6287 127.714 91.0122 127.714C91.3833 127.714 91.7018 127.636 91.9678 127.482C92.2337 127.327 92.4471 127.114 92.6079 126.841C92.7687 126.563 92.8862 126.241 92.9604 125.877C93.0409 125.512 93.0811 125.119 93.0811 124.698V124.504C93.0811 124.095 93.0409 123.712 92.9604 123.353C92.8862 122.988 92.7656 122.667 92.5986 122.388C92.4378 122.104 92.2244 121.881 91.9585 121.72C91.6925 121.56 91.3709 121.479 90.9937 121.479C90.6164 121.479 90.2948 121.56 90.0288 121.72C89.769 121.881 89.5557 122.104 89.3887 122.388C89.2279 122.667 89.1104 122.988 89.0361 123.353C88.9619 123.712 88.9248 124.095 88.9248 124.504ZM100.067 125.886L103.435 119.577H106.106V129.615H103.435V123.297L100.067 129.615H97.395V119.577H100.067V125.886ZM103.128 115.542H105.03C105.03 116.074 104.897 116.547 104.631 116.961C104.372 117.369 104 117.691 103.518 117.926C103.036 118.155 102.467 118.269 101.811 118.269C100.815 118.269 100.027 118.016 99.4453 117.508C98.8701 117.001 98.5825 116.346 98.5825 115.542H100.475C100.475 115.863 100.574 116.151 100.772 116.404C100.976 116.658 101.322 116.785 101.811 116.785C102.293 116.785 102.634 116.658 102.832 116.404C103.029 116.151 103.128 115.863 103.128 115.542ZM113.278 119.577V129.615H110.597V119.577H113.278ZM116.506 119.577V121.646H107.415V119.577H116.506ZM121.841 129.801C121.062 129.801 120.363 129.677 119.744 129.43C119.126 129.176 118.6 128.827 118.167 128.381C117.74 127.936 117.412 127.42 117.184 126.832C116.955 126.238 116.84 125.608 116.84 124.94V124.568C116.84 123.808 116.949 123.112 117.165 122.481C117.382 121.85 117.691 121.303 118.093 120.839C118.501 120.375 118.996 120.019 119.577 119.772C120.159 119.519 120.814 119.392 121.544 119.392C122.255 119.392 122.886 119.509 123.437 119.744C123.987 119.979 124.448 120.313 124.819 120.746C125.196 121.179 125.481 121.699 125.672 122.305C125.864 122.905 125.96 123.573 125.96 124.309V125.422H117.981V123.641H123.334V123.437C123.334 123.066 123.266 122.735 123.13 122.444C123 122.147 122.803 121.912 122.537 121.739C122.271 121.566 121.931 121.479 121.516 121.479C121.164 121.479 120.861 121.556 120.607 121.711C120.353 121.866 120.146 122.082 119.985 122.36C119.831 122.639 119.713 122.967 119.633 123.344C119.559 123.715 119.521 124.123 119.521 124.568V124.94C119.521 125.342 119.577 125.713 119.688 126.053C119.806 126.393 119.97 126.687 120.18 126.934C120.397 127.182 120.656 127.373 120.959 127.509C121.269 127.645 121.618 127.714 122.008 127.714C122.49 127.714 122.939 127.621 123.353 127.435C123.774 127.243 124.135 126.956 124.438 126.572L125.737 127.983C125.527 128.286 125.239 128.576 124.875 128.855C124.516 129.133 124.083 129.362 123.576 129.541C123.069 129.714 122.49 129.801 121.841 129.801ZM134.022 119.577H136.694L136.61 122.936C136.586 124.012 136.462 124.936 136.239 125.71C136.017 126.483 135.72 127.132 135.349 127.658C134.978 128.184 134.554 128.604 134.078 128.92C133.608 129.229 133.113 129.461 132.593 129.615H132.092L132.064 127.556L132.343 127.528C132.658 127.2 132.918 126.882 133.122 126.572C133.326 126.257 133.484 125.926 133.595 125.58C133.707 125.233 133.787 124.847 133.836 124.42C133.892 123.993 133.926 123.498 133.938 122.936L134.022 119.577ZM134.746 119.577H141.397V129.615H138.735V121.72H134.746V119.577ZM131.48 127.528H142.835V132.63H140.164V129.615H134.217V132.63H131.48V127.528ZM150.953 119.577V121.674H146.018V119.577H150.953ZM152.911 119.577V129.615H150.239V119.577H152.911ZM145.35 119.577H147.975L147.706 124.643C147.669 125.366 147.592 126.003 147.474 126.554C147.357 127.104 147.199 127.574 147.001 127.964C146.809 128.354 146.577 128.672 146.305 128.92C146.039 129.161 145.727 129.337 145.368 129.448C145.016 129.56 144.626 129.615 144.199 129.615H143.383L143.355 127.509L143.698 127.472C143.896 127.454 144.069 127.398 144.218 127.305C144.372 127.206 144.502 127.067 144.607 126.888C144.719 126.702 144.812 126.47 144.886 126.192C144.96 125.908 145.019 125.574 145.062 125.19C145.111 124.807 145.146 124.364 145.164 123.863L145.35 119.577ZM157.141 124.606H159.85L157.058 129.615H154.358L157.141 124.606ZM158.941 119.577H163.348V129.615H160.676V121.646H158.941C158.576 121.646 158.273 121.714 158.032 121.85C157.791 121.98 157.611 122.15 157.494 122.36C157.382 122.565 157.327 122.775 157.327 122.991C157.327 123.202 157.382 123.406 157.494 123.604C157.605 123.802 157.778 123.965 158.013 124.095C158.248 124.225 158.542 124.29 158.895 124.29H161.668V126.109H158.895C158.233 126.109 157.639 126.028 157.113 125.867C156.594 125.707 156.148 125.484 155.777 125.199C155.412 124.909 155.131 124.572 154.933 124.188C154.741 123.798 154.646 123.372 154.646 122.908C154.646 122.425 154.744 121.983 154.942 121.581C155.14 121.179 155.425 120.827 155.796 120.524C156.167 120.22 156.615 119.989 157.141 119.828C157.673 119.661 158.273 119.577 158.941 119.577ZM174.49 127.714C174.818 127.714 175.108 127.652 175.362 127.528C175.615 127.398 175.813 127.219 175.956 126.99C176.104 126.755 176.181 126.48 176.188 126.164H178.702C178.695 126.869 178.507 127.497 178.136 128.047C177.765 128.592 177.267 129.022 176.642 129.337C176.017 129.646 175.319 129.801 174.545 129.801C173.766 129.801 173.086 129.671 172.504 129.411C171.929 129.151 171.45 128.793 171.066 128.335C170.683 127.871 170.395 127.333 170.204 126.721C170.012 126.102 169.916 125.441 169.916 124.735V124.466C169.916 123.755 170.012 123.093 170.204 122.481C170.395 121.863 170.683 121.325 171.066 120.867C171.45 120.403 171.929 120.041 172.504 119.781C173.08 119.522 173.754 119.392 174.527 119.392C175.349 119.392 176.07 119.549 176.688 119.865C177.313 120.18 177.802 120.632 178.154 121.219C178.513 121.801 178.695 122.49 178.702 123.288H176.188C176.181 122.954 176.11 122.651 175.974 122.379C175.844 122.107 175.653 121.89 175.399 121.73C175.152 121.563 174.845 121.479 174.48 121.479C174.091 121.479 173.772 121.563 173.525 121.73C173.278 121.89 173.086 122.113 172.95 122.398C172.814 122.676 172.718 122.994 172.662 123.353C172.613 123.706 172.588 124.077 172.588 124.466V124.735C172.588 125.125 172.613 125.499 172.662 125.858C172.712 126.217 172.804 126.535 172.94 126.814C173.083 127.092 173.278 127.311 173.525 127.472C173.772 127.633 174.094 127.714 174.49 127.714ZM184.871 129.801C184.092 129.801 183.393 129.677 182.774 129.43C182.156 129.176 181.63 128.827 181.197 128.381C180.771 127.936 180.443 127.42 180.214 126.832C179.985 126.238 179.871 125.608 179.871 124.94V124.568C179.871 123.808 179.979 123.112 180.195 122.481C180.412 121.85 180.721 121.303 181.123 120.839C181.531 120.375 182.026 120.019 182.607 119.772C183.189 119.519 183.844 119.392 184.574 119.392C185.285 119.392 185.916 119.509 186.467 119.744C187.017 119.979 187.478 120.313 187.849 120.746C188.226 121.179 188.511 121.699 188.703 122.305C188.894 122.905 188.99 123.573 188.99 124.309V125.422H181.012V123.641H186.365V123.437C186.365 123.066 186.297 122.735 186.161 122.444C186.031 122.147 185.833 121.912 185.567 121.739C185.301 121.566 184.961 121.479 184.546 121.479C184.194 121.479 183.891 121.556 183.637 121.711C183.384 121.866 183.176 122.082 183.016 122.36C182.861 122.639 182.743 122.967 182.663 123.344C182.589 123.715 182.552 124.123 182.552 124.568V124.94C182.552 125.342 182.607 125.713 182.719 126.053C182.836 126.393 183 126.687 183.21 126.934C183.427 127.182 183.687 127.373 183.99 127.509C184.299 127.645 184.648 127.714 185.038 127.714C185.521 127.714 185.969 127.621 186.383 127.435C186.804 127.243 187.166 126.956 187.469 126.572L188.768 127.983C188.557 128.286 188.27 128.576 187.905 128.855C187.546 129.133 187.113 129.362 186.606 129.541C186.099 129.714 185.521 129.801 184.871 129.801ZM196.663 115.161H198.824C198.824 115.662 198.762 116.092 198.639 116.451C198.515 116.803 198.317 117.106 198.045 117.36C197.773 117.607 197.408 117.818 196.95 117.991C196.493 118.164 195.927 118.312 195.252 118.436C194.733 118.541 194.281 118.714 193.898 118.956C193.521 119.197 193.208 119.528 192.961 119.948C192.72 120.363 192.547 120.888 192.441 121.526C192.336 122.156 192.299 122.917 192.33 123.808V124.253L190.252 124.541V124.095C190.258 122.883 190.366 121.829 190.577 120.932C190.793 120.035 191.099 119.28 191.495 118.668C191.891 118.05 192.367 117.558 192.924 117.193C193.48 116.822 194.099 116.562 194.779 116.414C195.237 116.315 195.602 116.219 195.874 116.126C196.152 116.027 196.353 115.903 196.477 115.755C196.601 115.607 196.663 115.409 196.663 115.161ZM195.494 120.143C196.174 120.143 196.777 120.261 197.303 120.496C197.828 120.725 198.271 121.049 198.629 121.47C198.988 121.89 199.26 122.385 199.446 122.954C199.631 123.523 199.724 124.145 199.724 124.819V125.014C199.724 125.7 199.619 126.337 199.409 126.925C199.205 127.506 198.902 128.013 198.5 128.446C198.097 128.879 197.603 129.216 197.015 129.458C196.428 129.693 195.757 129.81 195.002 129.81C194.241 129.81 193.564 129.683 192.97 129.43C192.383 129.17 191.885 128.808 191.477 128.344C191.075 127.874 190.768 127.327 190.558 126.702C190.354 126.071 190.252 125.385 190.252 124.643V124.439C190.252 124.333 190.298 124.231 190.391 124.132C190.49 124.027 190.604 123.91 190.734 123.78C190.87 123.65 190.991 123.486 191.096 123.288C191.467 122.602 191.872 122.026 192.312 121.563C192.751 121.093 193.23 120.74 193.75 120.505C194.275 120.264 194.857 120.143 195.494 120.143ZM194.983 122.231C194.482 122.231 194.08 122.351 193.777 122.592C193.474 122.827 193.255 123.143 193.119 123.539C192.989 123.928 192.924 124.355 192.924 124.819V125.014C192.924 125.391 192.961 125.744 193.035 126.071C193.109 126.393 193.227 126.681 193.388 126.934C193.549 127.182 193.762 127.376 194.028 127.519C194.294 127.655 194.618 127.723 195.002 127.723C195.373 127.723 195.688 127.655 195.948 127.519C196.214 127.376 196.428 127.182 196.588 126.934C196.749 126.681 196.867 126.393 196.941 126.071C197.015 125.744 197.052 125.391 197.052 125.014V124.819C197.052 124.466 197.015 124.136 196.941 123.826C196.867 123.511 196.749 123.236 196.588 123.001C196.428 122.759 196.214 122.571 195.948 122.435C195.682 122.299 195.361 122.231 194.983 122.231ZM203.509 124.606H206.218L203.426 129.615H200.726L203.509 124.606ZM205.309 119.577H209.716V129.615H207.044V121.646H205.309C204.944 121.646 204.641 121.714 204.4 121.85C204.159 121.98 203.979 122.15 203.862 122.36C203.75 122.565 203.695 122.775 203.695 122.991C203.695 123.202 203.75 123.406 203.862 123.604C203.973 123.802 204.146 123.965 204.381 124.095C204.616 124.225 204.91 124.29 205.263 124.29H208.037V126.109H205.263C204.601 126.109 204.007 126.028 203.481 125.867C202.962 125.707 202.517 125.484 202.146 125.199C201.781 124.909 201.499 124.572 201.301 124.188C201.11 123.798 201.014 123.372 201.014 122.908C201.014 122.425 201.113 121.983 201.311 121.581C201.508 121.179 201.793 120.827 202.164 120.524C202.535 120.22 202.984 119.989 203.509 119.828C204.041 119.661 204.641 119.577 205.309 119.577ZM42.4917 150.615V140.577H45.1636V148.528H48.522V140.577H51.2031V150.615H42.4917ZM52.7061 148.537L52.5298 153.593H50.0435V150.615H48.9209V148.537H52.7061ZM58.6807 150.801C57.9014 150.801 57.2025 150.677 56.584 150.43C55.9655 150.176 55.4398 149.827 55.0068 149.381C54.5801 148.936 54.2523 148.42 54.0234 147.832C53.7946 147.238 53.6802 146.608 53.6802 145.94V145.568C53.6802 144.808 53.7884 144.112 54.0049 143.481C54.2214 142.85 54.5306 142.303 54.9326 141.839C55.3408 141.375 55.8356 141.019 56.417 140.772C56.9984 140.519 57.654 140.392 58.3838 140.392C59.0951 140.392 59.7259 140.509 60.2764 140.744C60.8268 140.979 61.2876 141.313 61.6587 141.746C62.036 142.179 62.3205 142.699 62.5122 143.305C62.7039 143.905 62.7998 144.573 62.7998 145.309V146.422H54.8213V144.641H60.1743V144.437C60.1743 144.066 60.1063 143.735 59.9702 143.444C59.8403 143.147 59.6424 142.912 59.3765 142.739C59.1105 142.566 58.7703 142.479 58.356 142.479C58.0034 142.479 57.7004 142.556 57.4468 142.711C57.1932 142.866 56.986 143.082 56.8252 143.36C56.6706 143.639 56.5531 143.967 56.4727 144.344C56.3984 144.715 56.3613 145.123 56.3613 145.568V145.94C56.3613 146.342 56.417 146.713 56.5283 147.053C56.6458 147.393 56.8097 147.687 57.02 147.934C57.2365 148.182 57.4963 148.373 57.7993 148.509C58.1086 148.645 58.458 148.714 58.8477 148.714C59.3301 148.714 59.7785 148.621 60.1929 148.435C60.6134 148.243 60.9753 147.956 61.2783 147.572L62.5771 148.983C62.3669 149.286 62.0793 149.576 61.7144 149.855C61.3556 150.133 60.9227 150.362 60.4155 150.541C59.9084 150.714 59.3301 150.801 58.6807 150.801ZM71.0752 140.577V142.674H66.1396V140.577H71.0752ZM73.0327 140.577V150.615H70.3608V140.577H73.0327ZM65.4717 140.577H68.0972L67.8281 145.643C67.791 146.366 67.7137 147.003 67.5962 147.554C67.4787 148.104 67.321 148.574 67.123 148.964C66.9313 149.354 66.6994 149.672 66.4272 149.92C66.1613 150.161 65.849 150.337 65.4902 150.448C65.1377 150.56 64.748 150.615 64.3213 150.615H63.5049L63.4771 148.509L63.8203 148.472C64.0182 148.454 64.1914 148.398 64.3398 148.305C64.4945 148.206 64.6243 148.067 64.7295 147.888C64.8408 147.702 64.9336 147.47 65.0078 147.192C65.082 146.908 65.1408 146.574 65.1841 146.19C65.2336 145.807 65.2676 145.364 65.2861 144.863L65.4717 140.577ZM78.0796 149.484L80.7422 140.577H83.6089L79.5732 152.128C79.4867 152.381 79.3691 152.653 79.2207 152.944C79.0785 153.235 78.8836 153.51 78.6362 153.77C78.395 154.036 78.0889 154.252 77.7178 154.419C77.3529 154.586 76.9045 154.67 76.3726 154.67C76.119 154.67 75.9118 154.654 75.751 154.623C75.5902 154.592 75.3984 154.549 75.1758 154.493V152.536C75.2438 152.536 75.3149 152.536 75.3892 152.536C75.4634 152.542 75.5345 152.545 75.6025 152.545C75.9551 152.545 76.2427 152.505 76.4653 152.424C76.688 152.344 76.8674 152.22 77.0034 152.053C77.1395 151.893 77.2477 151.682 77.3281 151.422L78.0796 149.484ZM76.9663 140.577L79.1465 147.851L79.5269 150.68L77.7085 150.875L74.0996 140.577H76.9663ZM90.7339 144.464V146.561H85.3159V144.464H90.7339ZM87.5703 140.577V150.615H84.8892V140.577H87.5703ZM88.9248 145.698V145.504C88.9248 144.768 89.0299 144.09 89.2402 143.472C89.4505 142.847 89.7567 142.306 90.1587 141.848C90.5669 141.391 91.0648 141.035 91.6523 140.781C92.2399 140.522 92.911 140.392 93.6655 140.392C94.4325 140.392 95.1097 140.522 95.6973 140.781C96.291 141.035 96.792 141.391 97.2002 141.848C97.6084 142.306 97.9146 142.847 98.1187 143.472C98.3289 144.09 98.4341 144.768 98.4341 145.504V145.698C98.4341 146.428 98.3289 147.105 98.1187 147.73C97.9146 148.349 97.6084 148.89 97.2002 149.354C96.7982 149.811 96.3003 150.167 95.7065 150.421C95.119 150.674 94.4448 150.801 93.6841 150.801C92.9233 150.801 92.2492 150.674 91.6616 150.421C91.0741 150.167 90.5762 149.811 90.168 149.354C89.7598 148.89 89.4505 148.349 89.2402 147.73C89.0299 147.105 88.9248 146.428 88.9248 145.698ZM91.5967 145.504V145.698C91.5967 146.119 91.6338 146.512 91.708 146.877C91.7884 147.241 91.909 147.563 92.0698 147.841C92.2368 148.114 92.4533 148.327 92.7192 148.482C92.9852 148.636 93.3068 148.714 93.6841 148.714C94.0614 148.714 94.3799 148.636 94.6396 148.482C94.9056 148.327 95.119 148.114 95.2798 147.841C95.4468 147.563 95.5674 147.241 95.6416 146.877C95.722 146.512 95.7622 146.119 95.7622 145.698V145.504C95.7622 145.095 95.722 144.712 95.6416 144.353C95.5674 143.988 95.4468 143.667 95.2798 143.388C95.119 143.104 94.9056 142.881 94.6396 142.72C94.3737 142.56 94.049 142.479 93.6655 142.479C93.2944 142.479 92.9759 142.56 92.71 142.72C92.4502 142.881 92.2368 143.104 92.0698 143.388C91.909 143.667 91.7884 143.988 91.708 144.353C91.6338 144.712 91.5967 145.095 91.5967 145.504ZM111.58 140.577V142.674H106.719V140.577H111.58ZM107.489 140.577V150.615H104.817V140.577H107.489ZM113.528 140.577V150.615H110.847V140.577H113.528ZM122.342 140.577V142.674H117.406V140.577H122.342ZM124.299 140.577V150.615H121.627V140.577H124.299ZM116.738 140.577H119.364L119.095 145.643C119.058 146.366 118.98 147.003 118.863 147.554C118.745 148.104 118.588 148.574 118.39 148.964C118.198 149.354 117.966 149.672 117.694 149.92C117.428 150.161 117.116 150.337 116.757 150.448C116.404 150.56 116.015 150.615 115.588 150.615H114.771L114.744 148.509L115.087 148.472C115.285 148.454 115.458 148.398 115.606 148.305C115.761 148.206 115.891 148.067 115.996 147.888C116.107 147.702 116.2 147.47 116.274 147.192C116.349 146.908 116.407 146.574 116.451 146.19C116.5 145.807 116.534 145.364 116.553 144.863L116.738 140.577ZM125.941 145.698V145.504C125.941 144.768 126.047 144.09 126.257 143.472C126.467 142.847 126.773 142.306 127.175 141.848C127.577 141.391 128.072 141.035 128.66 140.781C129.247 140.522 129.921 140.392 130.682 140.392C131.443 140.392 132.12 140.522 132.714 140.781C133.308 141.035 133.806 141.391 134.208 141.848C134.616 142.306 134.925 142.847 135.135 143.472C135.346 144.09 135.451 144.768 135.451 145.504V145.698C135.451 146.428 135.346 147.105 135.135 147.73C134.925 148.349 134.616 148.89 134.208 149.354C133.806 149.811 133.311 150.167 132.723 150.421C132.136 150.674 131.461 150.801 130.701 150.801C129.94 150.801 129.263 150.674 128.669 150.421C128.081 150.167 127.583 149.811 127.175 149.354C126.773 148.89 126.467 148.349 126.257 147.73C126.047 147.105 125.941 146.428 125.941 145.698ZM128.613 145.504V145.698C128.613 146.119 128.65 146.512 128.725 146.877C128.799 147.241 128.916 147.563 129.077 147.841C129.244 148.114 129.461 148.327 129.727 148.482C129.993 148.636 130.317 148.714 130.701 148.714C131.072 148.714 131.39 148.636 131.656 148.482C131.922 148.327 132.136 148.114 132.296 147.841C132.457 147.563 132.575 147.241 132.649 146.877C132.729 146.512 132.77 146.119 132.77 145.698V145.504C132.77 145.095 132.729 144.712 132.649 144.353C132.575 143.988 132.454 143.667 132.287 143.388C132.126 143.104 131.913 142.881 131.647 142.72C131.381 142.56 131.059 142.479 130.682 142.479C130.305 142.479 129.983 142.56 129.717 142.72C129.458 142.881 129.244 143.104 129.077 143.388C128.916 143.667 128.799 143.988 128.725 144.353C128.65 144.712 128.613 145.095 128.613 145.504ZM137.083 140.577H139.755V148.528H142.529V140.577H145.22V148.528H147.984V140.577H150.656V150.615H137.083V140.577ZM158.227 148.352V143.88C158.227 143.558 158.174 143.283 158.069 143.054C157.964 142.819 157.8 142.637 157.577 142.507C157.361 142.377 157.079 142.312 156.733 142.312C156.436 142.312 156.179 142.365 155.963 142.47C155.746 142.569 155.579 142.714 155.462 142.906C155.344 143.091 155.286 143.311 155.286 143.565H152.614C152.614 143.138 152.713 142.733 152.911 142.349C153.109 141.966 153.396 141.629 153.773 141.338C154.151 141.041 154.599 140.809 155.119 140.642C155.644 140.475 156.232 140.392 156.881 140.392C157.661 140.392 158.353 140.522 158.959 140.781C159.566 141.041 160.042 141.431 160.388 141.95C160.741 142.47 160.917 143.119 160.917 143.899V148.194C160.917 148.744 160.951 149.196 161.019 149.548C161.087 149.895 161.186 150.198 161.316 150.458V150.615H158.616C158.486 150.343 158.387 150.003 158.319 149.595C158.257 149.18 158.227 148.766 158.227 148.352ZM158.579 144.502L158.598 146.014H157.104C156.751 146.014 156.445 146.054 156.186 146.134C155.926 146.215 155.712 146.329 155.545 146.478C155.378 146.62 155.255 146.787 155.174 146.979C155.1 147.17 155.063 147.381 155.063 147.609C155.063 147.838 155.116 148.046 155.221 148.231C155.326 148.41 155.477 148.553 155.675 148.658C155.873 148.757 156.105 148.806 156.371 148.806C156.773 148.806 157.123 148.726 157.419 148.565C157.716 148.404 157.945 148.206 158.106 147.971C158.273 147.736 158.36 147.514 158.366 147.303L159.071 148.435C158.972 148.689 158.836 148.952 158.663 149.224C158.496 149.496 158.282 149.753 158.022 149.994C157.763 150.229 157.45 150.424 157.085 150.578C156.721 150.727 156.288 150.801 155.787 150.801C155.15 150.801 154.571 150.674 154.052 150.421C153.538 150.161 153.13 149.805 152.827 149.354C152.53 148.896 152.382 148.376 152.382 147.795C152.382 147.269 152.481 146.802 152.679 146.394C152.877 145.986 153.167 145.643 153.551 145.364C153.94 145.08 154.426 144.866 155.007 144.724C155.589 144.576 156.263 144.502 157.03 144.502H158.579ZM164.786 140.577H167.458L167.374 143.936C167.349 145.012 167.226 145.936 167.003 146.71C166.78 147.483 166.483 148.132 166.112 148.658C165.741 149.184 165.318 149.604 164.841 149.92C164.371 150.229 163.876 150.461 163.357 150.615H162.856L162.828 148.556L163.106 148.528C163.422 148.2 163.682 147.882 163.886 147.572C164.09 147.257 164.248 146.926 164.359 146.58C164.47 146.233 164.551 145.847 164.6 145.42C164.656 144.993 164.69 144.498 164.702 143.936L164.786 140.577ZM165.509 140.577H172.161V150.615H169.499V142.72H165.509V140.577ZM162.244 148.528H173.599V153.63H170.927V150.615H164.98V153.63H162.244V148.528ZM177.7 140.577V150.615H175.028V140.577H177.7ZM184.222 140.577L179.898 146.858H177.227L176.902 144.39H178.674L180.835 140.577H184.222ZM180.956 150.615L178.488 146.376L180.817 145.086L184.537 150.615H180.956ZM188.517 149.484L191.18 140.577H194.046L190.011 152.128C189.924 152.381 189.807 152.653 189.658 152.944C189.516 153.235 189.321 153.51 189.074 153.77C188.833 154.036 188.526 154.252 188.155 154.419C187.79 154.586 187.342 154.67 186.81 154.67C186.556 154.67 186.349 154.654 186.188 154.623C186.028 154.592 185.836 154.549 185.613 154.493V152.536C185.681 152.536 185.752 152.536 185.827 152.536C185.901 152.542 185.972 152.545 186.04 152.545C186.393 152.545 186.68 152.505 186.903 152.424C187.125 152.344 187.305 152.22 187.441 152.053C187.577 151.893 187.685 151.682 187.766 151.422L188.517 149.484ZM187.404 140.577L189.584 147.851L189.964 150.68L188.146 150.875L184.537 140.577H187.404ZM44.3101 161.577H46.9819L46.8984 164.936C46.8737 166.012 46.75 166.936 46.5273 167.71C46.3047 168.483 46.0078 169.132 45.6367 169.658C45.2656 170.184 44.842 170.604 44.3657 170.92C43.8957 171.229 43.4009 171.461 42.8813 171.615H42.3804L42.3525 169.556L42.6309 169.528C42.9463 169.2 43.2061 168.882 43.4102 168.572C43.6143 168.257 43.772 167.926 43.8833 167.58C43.9946 167.233 44.075 166.847 44.1245 166.42C44.1802 165.993 44.2142 165.498 44.2266 164.936L44.3101 161.577ZM45.0337 161.577H51.6855V171.615H49.0229V163.72H45.0337V161.577ZM41.7681 169.528H53.1235V174.63H50.4517V171.615H44.5049V174.63H41.7681V169.528ZM61.2412 161.577V163.674H56.3057V161.577H61.2412ZM63.1987 161.577V171.615H60.5269V161.577H63.1987ZM55.6377 161.577H58.2632L57.9941 166.643C57.957 167.366 57.8797 168.003 57.7622 168.554C57.6447 169.104 57.487 169.574 57.2891 169.964C57.0973 170.354 56.8654 170.672 56.5933 170.92C56.3273 171.161 56.015 171.337 55.6562 171.448C55.3037 171.56 54.9141 171.615 54.4873 171.615H53.6709L53.6431 169.509L53.9863 169.472C54.1842 169.454 54.3574 169.398 54.5059 169.305C54.6605 169.206 54.7904 169.067 54.8955 168.888C55.0068 168.702 55.0996 168.47 55.1738 168.192C55.248 167.908 55.3068 167.574 55.3501 167.19C55.3996 166.807 55.4336 166.364 55.4521 165.863L55.6377 161.577ZM67.4292 166.606H70.1382L67.3457 171.615H64.646L67.4292 166.606ZM69.229 161.577H73.6357V171.615H70.9639V163.646H69.229C68.8641 163.646 68.561 163.714 68.3198 163.85C68.0786 163.98 67.8993 164.15 67.7817 164.36C67.6704 164.565 67.6147 164.775 67.6147 164.991C67.6147 165.202 67.6704 165.406 67.7817 165.604C67.8931 165.802 68.0662 165.965 68.3013 166.095C68.5363 166.225 68.8301 166.29 69.1826 166.29H71.9565V168.109H69.1826C68.5208 168.109 67.9271 168.028 67.4014 167.867C66.8818 167.707 66.4365 167.484 66.0654 167.199C65.7005 166.909 65.4191 166.572 65.2212 166.188C65.0295 165.798 64.9336 165.372 64.9336 164.908C64.9336 164.425 65.0326 163.983 65.2305 163.581C65.4284 163.179 65.7129 162.827 66.084 162.524C66.4551 162.22 66.9035 161.989 67.4292 161.828C67.9611 161.661 68.561 161.577 69.229 161.577ZM87.3848 161.577V163.674H82.5234V161.577H87.3848ZM83.2935 161.577V171.615H80.6216V161.577H83.2935ZM89.333 161.577V171.615H86.6519V161.577H89.333ZM94.0645 163.507V175.475H91.3926V161.577H93.8696L94.0645 163.507ZM100.419 166.485V166.68C100.419 167.41 100.333 168.087 100.16 168.712C99.9927 169.336 99.7453 169.88 99.4175 170.344C99.0897 170.802 98.6815 171.161 98.1929 171.421C97.7104 171.674 97.1538 171.801 96.5229 171.801C95.9106 171.801 95.3787 171.677 94.9272 171.43C94.4757 171.182 94.0954 170.836 93.7861 170.391C93.4831 169.939 93.2388 169.417 93.0532 168.823C92.8677 168.229 92.7254 167.592 92.6265 166.912V166.401C92.7254 165.672 92.8677 165.004 93.0532 164.398C93.2388 163.785 93.4831 163.256 93.7861 162.811C94.0954 162.36 94.4727 162.01 94.918 161.763C95.3695 161.515 95.8983 161.392 96.5044 161.392C97.1414 161.392 97.7012 161.512 98.1836 161.754C98.6722 161.995 99.0804 162.341 99.4082 162.793C99.7422 163.244 99.9927 163.782 100.16 164.407C100.333 165.032 100.419 165.724 100.419 166.485ZM97.7383 166.68V166.485C97.7383 166.058 97.7012 165.665 97.627 165.307C97.5589 164.942 97.4476 164.623 97.293 164.351C97.1445 164.079 96.9466 163.869 96.6992 163.72C96.458 163.566 96.1642 163.488 95.8179 163.488C95.453 163.488 95.1406 163.547 94.8809 163.665C94.6273 163.782 94.4201 163.952 94.2593 164.175C94.0985 164.398 93.9779 164.664 93.8975 164.973C93.8171 165.282 93.7676 165.631 93.749 166.021V167.311C93.7799 167.768 93.8665 168.18 94.0088 168.545C94.151 168.903 94.3706 169.188 94.6675 169.398C94.9644 169.608 95.354 169.714 95.8364 169.714C96.189 169.714 96.4858 169.636 96.7271 169.482C96.9683 169.321 97.1631 169.101 97.3115 168.823C97.4661 168.545 97.5744 168.223 97.6362 167.858C97.7043 167.493 97.7383 167.1 97.7383 166.68ZM101.653 166.698V166.504C101.653 165.768 101.758 165.09 101.969 164.472C102.179 163.847 102.485 163.306 102.887 162.848C103.289 162.391 103.784 162.035 104.372 161.781C104.959 161.522 105.633 161.392 106.394 161.392C107.155 161.392 107.832 161.522 108.426 161.781C109.02 162.035 109.517 162.391 109.919 162.848C110.328 163.306 110.637 163.847 110.847 164.472C111.057 165.09 111.163 165.768 111.163 166.504V166.698C111.163 167.428 111.057 168.105 110.847 168.73C110.637 169.349 110.328 169.89 109.919 170.354C109.517 170.811 109.023 171.167 108.435 171.421C107.847 171.674 107.173 171.801 106.413 171.801C105.652 171.801 104.975 171.674 104.381 171.421C103.793 171.167 103.295 170.811 102.887 170.354C102.485 169.89 102.179 169.349 101.969 168.73C101.758 168.105 101.653 167.428 101.653 166.698ZM104.325 166.504V166.698C104.325 167.119 104.362 167.512 104.437 167.877C104.511 168.241 104.628 168.563 104.789 168.841C104.956 169.114 105.173 169.327 105.438 169.482C105.704 169.636 106.029 169.714 106.413 169.714C106.784 169.714 107.102 169.636 107.368 169.482C107.634 169.327 107.847 169.114 108.008 168.841C108.169 168.563 108.287 168.241 108.361 167.877C108.441 167.512 108.481 167.119 108.481 166.698V166.504C108.481 166.095 108.441 165.712 108.361 165.353C108.287 164.988 108.166 164.667 107.999 164.388C107.838 164.104 107.625 163.881 107.359 163.72C107.093 163.56 106.771 163.479 106.394 163.479C106.017 163.479 105.695 163.56 105.429 163.72C105.169 163.881 104.956 164.104 104.789 164.388C104.628 164.667 104.511 164.988 104.437 165.353C104.362 165.712 104.325 166.095 104.325 166.504ZM113.946 161.577H116.618L116.534 164.936C116.509 166.012 116.386 166.936 116.163 167.71C115.94 168.483 115.644 169.132 115.272 169.658C114.901 170.184 114.478 170.604 114.001 170.92C113.531 171.229 113.037 171.461 112.517 171.615H112.016L111.988 169.556L112.267 169.528C112.582 169.2 112.842 168.882 113.046 168.572C113.25 168.257 113.408 167.926 113.519 167.58C113.63 167.233 113.711 166.847 113.76 166.42C113.816 165.993 113.85 165.498 113.862 164.936L113.946 161.577ZM114.669 161.577H121.321V171.615H118.659V163.72H114.669V161.577ZM111.404 169.528H122.759V174.63H120.087V171.615H114.141V174.63H111.404V169.528ZM129.541 169.352V164.88C129.541 164.558 129.488 164.283 129.383 164.054C129.278 163.819 129.114 163.637 128.892 163.507C128.675 163.377 128.394 163.312 128.047 163.312C127.75 163.312 127.494 163.365 127.277 163.47C127.061 163.569 126.894 163.714 126.776 163.906C126.659 164.091 126.6 164.311 126.6 164.565H123.928C123.928 164.138 124.027 163.733 124.225 163.349C124.423 162.966 124.711 162.629 125.088 162.338C125.465 162.041 125.914 161.809 126.433 161.642C126.959 161.475 127.546 161.392 128.196 161.392C128.975 161.392 129.668 161.522 130.274 161.781C130.88 162.041 131.356 162.431 131.703 162.95C132.055 163.47 132.231 164.119 132.231 164.899V169.194C132.231 169.744 132.265 170.196 132.333 170.548C132.402 170.895 132.5 171.198 132.63 171.458V171.615H129.931C129.801 171.343 129.702 171.003 129.634 170.595C129.572 170.18 129.541 169.766 129.541 169.352ZM129.894 165.502L129.912 167.014H128.418C128.066 167.014 127.76 167.054 127.5 167.134C127.24 167.215 127.027 167.329 126.86 167.478C126.693 167.62 126.569 167.787 126.489 167.979C126.415 168.17 126.377 168.381 126.377 168.609C126.377 168.838 126.43 169.046 126.535 169.231C126.64 169.41 126.792 169.553 126.99 169.658C127.188 169.757 127.42 169.806 127.686 169.806C128.088 169.806 128.437 169.726 128.734 169.565C129.031 169.404 129.26 169.206 129.42 168.971C129.587 168.736 129.674 168.514 129.68 168.303L130.385 169.435C130.286 169.689 130.15 169.952 129.977 170.224C129.81 170.496 129.597 170.753 129.337 170.994C129.077 171.229 128.765 171.424 128.4 171.578C128.035 171.727 127.602 171.801 127.101 171.801C126.464 171.801 125.886 171.674 125.366 171.421C124.853 171.161 124.445 170.805 124.142 170.354C123.845 169.896 123.696 169.376 123.696 168.795C123.696 168.269 123.795 167.802 123.993 167.394C124.191 166.986 124.482 166.643 124.865 166.364C125.255 166.08 125.74 165.866 126.322 165.724C126.903 165.576 127.577 165.502 128.344 165.502H129.894ZM137.835 167.83L133.66 161.577H136.972L139.106 165.362H141.026L140.702 167.83H137.835ZM139.143 167.376L136.852 171.615H133.632L136.963 166.086L139.143 167.376ZM142.761 161.577V171.615H140.089V161.577H142.761ZM149.218 161.577L145.043 167.83H142.177L141.852 165.362H143.772L145.897 161.577H149.218ZM146.018 171.615L143.726 167.376L145.99 166.086L149.302 171.615H146.018ZM155.035 171.801C154.256 171.801 153.557 171.677 152.938 171.43C152.32 171.176 151.794 170.827 151.361 170.381C150.935 169.936 150.607 169.42 150.378 168.832C150.149 168.238 150.035 167.608 150.035 166.94V166.568C150.035 165.808 150.143 165.112 150.359 164.481C150.576 163.85 150.885 163.303 151.287 162.839C151.695 162.375 152.19 162.019 152.771 161.772C153.353 161.519 154.008 161.392 154.738 161.392C155.45 161.392 156.08 161.509 156.631 161.744C157.181 161.979 157.642 162.313 158.013 162.746C158.39 163.179 158.675 163.699 158.867 164.305C159.058 164.905 159.154 165.573 159.154 166.309V167.422H151.176V165.641H156.529V165.437C156.529 165.066 156.461 164.735 156.325 164.444C156.195 164.147 155.997 163.912 155.731 163.739C155.465 163.566 155.125 163.479 154.71 163.479C154.358 163.479 154.055 163.556 153.801 163.711C153.548 163.866 153.34 164.082 153.18 164.36C153.025 164.639 152.908 164.967 152.827 165.344C152.753 165.715 152.716 166.123 152.716 166.568V166.94C152.716 167.342 152.771 167.713 152.883 168.053C153 168.393 153.164 168.687 153.375 168.934C153.591 169.182 153.851 169.373 154.154 169.509C154.463 169.645 154.812 169.714 155.202 169.714C155.685 169.714 156.133 169.621 156.547 169.435C156.968 169.243 157.33 168.956 157.633 168.572L158.932 169.983C158.721 170.286 158.434 170.576 158.069 170.855C157.71 171.133 157.277 171.362 156.77 171.541C156.263 171.714 155.685 171.801 155.035 171.801Z" fill="#787993"/>
<g clip-path="url(#clip0_0_10040)">
<rect x="42.4619" y="195.538" width="159.615" height="37.7692" rx="4" stroke="#41D481" stroke-width="2"/>
<path d="M63.3672 207.048V218.423H61.0234V207.048H63.3672ZM70.0703 207.048L65.7109 213.728H62.8438L62.5469 211.642H64.4609L67.2266 207.048H70.0703ZM67.6562 218.423L64.4688 213.337L66.0938 211.665L70.4375 218.423H67.6562ZM75.7812 216.517V212.751C75.7812 212.48 75.737 212.249 75.6484 212.056C75.5599 211.858 75.4219 211.704 75.2344 211.595C75.0521 211.486 74.8151 211.431 74.5234 211.431C74.2734 211.431 74.0573 211.475 73.875 211.564C73.6927 211.647 73.5521 211.769 73.4531 211.931C73.3542 212.087 73.3047 212.272 73.3047 212.486H71.0547C71.0547 212.126 71.138 211.785 71.3047 211.462C71.4714 211.139 71.7135 210.855 72.0312 210.611C72.349 210.361 72.7266 210.165 73.1641 210.025C73.6068 209.884 74.1016 209.814 74.6484 209.814C75.3047 209.814 75.888 209.923 76.3984 210.142C76.9089 210.361 77.3099 210.689 77.6016 211.126C77.8984 211.564 78.0469 212.111 78.0469 212.767V216.384C78.0469 216.848 78.0755 217.228 78.1328 217.525C78.1901 217.816 78.2734 218.072 78.3828 218.29V218.423H76.1094C76 218.194 75.9167 217.907 75.8594 217.564C75.8073 217.215 75.7812 216.866 75.7812 216.517ZM76.0781 213.275L76.0938 214.548H74.8359C74.5391 214.548 74.2812 214.582 74.0625 214.65C73.8438 214.717 73.6641 214.814 73.5234 214.939C73.3828 215.058 73.2786 215.199 73.2109 215.361C73.1484 215.522 73.1172 215.699 73.1172 215.892C73.1172 216.085 73.1615 216.259 73.25 216.415C73.3385 216.566 73.4661 216.686 73.6328 216.775C73.7995 216.858 73.9948 216.9 74.2188 216.9C74.5573 216.9 74.8516 216.832 75.1016 216.697C75.3516 216.561 75.5443 216.394 75.6797 216.197C75.8203 215.999 75.8932 215.811 75.8984 215.634L76.4922 216.587C76.4089 216.801 76.2943 217.022 76.1484 217.251C76.0078 217.48 75.8281 217.697 75.6094 217.9C75.3906 218.098 75.1276 218.262 74.8203 218.392C74.513 218.517 74.1484 218.579 73.7266 218.579C73.1901 218.579 72.7031 218.473 72.2656 218.259C71.8333 218.04 71.4896 217.741 71.2344 217.361C70.9844 216.975 70.8594 216.538 70.8594 216.048C70.8594 215.605 70.9427 215.212 71.1094 214.868C71.276 214.525 71.5208 214.236 71.8438 214.001C72.1719 213.762 72.5807 213.582 73.0703 213.462C73.5599 213.337 74.1276 213.275 74.7734 213.275H76.0781ZM82.1797 209.97V218.423H79.9297V209.97H82.1797ZM87.6719 209.97L84.0312 215.259H81.7812L81.5078 213.181H83L84.8203 209.97H87.6719ZM84.9219 218.423L82.8438 214.853L84.8047 213.767L87.9375 218.423H84.9219ZM95.8281 211.572C95.5625 211.572 95.3281 211.626 95.125 211.736C94.9271 211.84 94.7734 211.988 94.6641 212.181C94.5547 212.374 94.5 212.603 94.5 212.868H92.3828C92.3828 212.28 92.5365 211.756 92.8438 211.298C93.151 210.835 93.5651 210.473 94.0859 210.212C94.612 209.947 95.1927 209.814 95.8281 209.814C96.474 209.814 97.0391 209.923 97.5234 210.142C98.013 210.361 98.4219 210.665 98.75 211.056C99.0833 211.441 99.3333 211.894 99.5 212.415C99.6667 212.931 99.75 213.488 99.75 214.087V214.314C99.75 214.907 99.6667 215.465 99.5 215.986C99.3333 216.501 99.0833 216.954 98.75 217.345C98.4219 217.73 98.0156 218.032 97.5312 218.251C97.0469 218.47 96.487 218.579 95.8516 218.579C95.1693 218.579 94.5651 218.447 94.0391 218.181C93.5182 217.915 93.112 217.538 92.8203 217.048C92.5286 216.553 92.3828 215.97 92.3828 215.298H94.5C94.5 215.585 94.5521 215.842 94.6562 216.072C94.7656 216.301 94.9193 216.483 95.1172 216.618C95.3151 216.754 95.5599 216.822 95.8516 216.822C96.1641 216.822 96.4245 216.754 96.6328 216.618C96.8464 216.478 97.0156 216.29 97.1406 216.056C97.2656 215.822 97.3542 215.553 97.4062 215.251C97.4635 214.949 97.4922 214.637 97.4922 214.314V214.087C97.4922 213.754 97.4635 213.439 97.4062 213.142C97.3542 212.84 97.2656 212.572 97.1406 212.337C97.0156 212.098 96.8464 211.91 96.6328 211.775C96.4245 211.639 96.1562 211.572 95.8281 211.572ZM98.2188 213.486V214.837H95.1797V213.486H98.2188ZM104.961 209.97V218.423H102.703V209.97H104.961ZM107.68 209.97V211.712H100.023V209.97H107.68ZM108.203 214.282V214.118C108.203 213.499 108.292 212.928 108.469 212.407C108.646 211.881 108.904 211.426 109.242 211.04C109.581 210.655 109.997 210.355 110.492 210.142C110.987 209.923 111.555 209.814 112.195 209.814C112.836 209.814 113.406 209.923 113.906 210.142C114.406 210.355 114.826 210.655 115.164 211.04C115.508 211.426 115.768 211.881 115.945 212.407C116.122 212.928 116.211 213.499 116.211 214.118V214.282C116.211 214.897 116.122 215.467 115.945 215.993C115.768 216.514 115.508 216.97 115.164 217.361C114.826 217.746 114.409 218.045 113.914 218.259C113.419 218.473 112.852 218.579 112.211 218.579C111.57 218.579 111 218.473 110.5 218.259C110.005 218.045 109.586 217.746 109.242 217.361C108.904 216.97 108.646 216.514 108.469 215.993C108.292 215.467 108.203 214.897 108.203 214.282ZM110.453 214.118V214.282C110.453 214.637 110.484 214.967 110.547 215.275C110.609 215.582 110.708 215.853 110.844 216.087C110.984 216.316 111.167 216.496 111.391 216.626C111.615 216.756 111.888 216.822 112.211 216.822C112.523 216.822 112.792 216.756 113.016 216.626C113.24 216.496 113.419 216.316 113.555 216.087C113.69 215.853 113.789 215.582 113.852 215.275C113.919 214.967 113.953 214.637 113.953 214.282V214.118C113.953 213.775 113.919 213.452 113.852 213.15C113.789 212.842 113.688 212.572 113.547 212.337C113.411 212.098 113.232 211.91 113.008 211.775C112.784 211.639 112.513 211.572 112.195 211.572C111.878 211.572 111.607 211.639 111.383 211.775C111.164 211.91 110.984 212.098 110.844 212.337C110.708 212.572 110.609 212.842 110.547 213.15C110.484 213.452 110.453 213.775 110.453 214.118ZM123.102 209.97H125.352L125.281 212.798C125.26 213.704 125.156 214.483 124.969 215.134C124.781 215.785 124.531 216.332 124.219 216.775C123.906 217.217 123.549 217.572 123.148 217.837C122.753 218.098 122.336 218.293 121.898 218.423H121.477L121.453 216.689L121.688 216.665C121.953 216.389 122.172 216.121 122.344 215.861C122.516 215.595 122.648 215.316 122.742 215.025C122.836 214.733 122.904 214.407 122.945 214.048C122.992 213.689 123.021 213.272 123.031 212.798L123.102 209.97ZM123.711 209.97H129.312V218.423H127.07V211.775H123.711V209.97ZM120.961 216.665H130.523V220.962H128.273V218.423H123.266V220.962H120.961V216.665ZM135.562 218.579C134.906 218.579 134.318 218.475 133.797 218.267C133.276 218.053 132.833 217.759 132.469 217.384C132.109 217.009 131.833 216.574 131.641 216.079C131.448 215.579 131.352 215.048 131.352 214.486V214.173C131.352 213.532 131.443 212.947 131.625 212.415C131.807 211.884 132.068 211.423 132.406 211.032C132.75 210.642 133.167 210.342 133.656 210.134C134.146 209.92 134.698 209.814 135.312 209.814C135.911 209.814 136.443 209.913 136.906 210.111C137.37 210.308 137.758 210.59 138.07 210.954C138.388 211.319 138.628 211.756 138.789 212.267C138.951 212.772 139.031 213.335 139.031 213.954V214.892H132.312V213.392H136.82V213.22C136.82 212.907 136.763 212.629 136.648 212.384C136.539 212.134 136.372 211.936 136.148 211.79C135.924 211.644 135.638 211.572 135.289 211.572C134.992 211.572 134.737 211.637 134.523 211.767C134.31 211.897 134.135 212.079 134 212.314C133.87 212.548 133.771 212.824 133.703 213.142C133.641 213.454 133.609 213.798 133.609 214.173V214.486C133.609 214.824 133.656 215.137 133.75 215.423C133.849 215.71 133.987 215.957 134.164 216.165C134.346 216.374 134.565 216.535 134.82 216.65C135.081 216.764 135.375 216.822 135.703 216.822C136.109 216.822 136.487 216.743 136.836 216.587C137.19 216.426 137.495 216.183 137.75 215.861L138.844 217.048C138.667 217.303 138.424 217.548 138.117 217.782C137.815 218.017 137.451 218.21 137.023 218.361C136.596 218.506 136.109 218.579 135.562 218.579ZM146 209.97V211.736H141.844V209.97H146ZM147.648 209.97V218.423H145.398V209.97H147.648ZM141.281 209.97H143.492L143.266 214.236C143.234 214.845 143.169 215.381 143.07 215.845C142.971 216.308 142.839 216.704 142.672 217.032C142.51 217.361 142.315 217.629 142.086 217.837C141.862 218.04 141.599 218.189 141.297 218.282C141 218.376 140.672 218.423 140.312 218.423H139.625L139.602 216.65L139.891 216.618C140.057 216.603 140.203 216.556 140.328 216.478C140.458 216.394 140.568 216.277 140.656 216.126C140.75 215.97 140.828 215.775 140.891 215.54C140.953 215.301 141.003 215.019 141.039 214.697C141.081 214.374 141.109 214.001 141.125 213.579L141.281 209.97ZM153.953 216.517V212.751C153.953 212.48 153.909 212.249 153.82 212.056C153.732 211.858 153.594 211.704 153.406 211.595C153.224 211.486 152.987 211.431 152.695 211.431C152.445 211.431 152.229 211.475 152.047 211.564C151.865 211.647 151.724 211.769 151.625 211.931C151.526 212.087 151.477 212.272 151.477 212.486H149.227C149.227 212.126 149.31 211.785 149.477 211.462C149.643 211.139 149.885 210.855 150.203 210.611C150.521 210.361 150.898 210.165 151.336 210.025C151.779 209.884 152.273 209.814 152.82 209.814C153.477 209.814 154.06 209.923 154.57 210.142C155.081 210.361 155.482 210.689 155.773 211.126C156.07 211.564 156.219 212.111 156.219 212.767V216.384C156.219 216.848 156.247 217.228 156.305 217.525C156.362 217.816 156.445 218.072 156.555 218.29V218.423H154.281C154.172 218.194 154.089 217.907 154.031 217.564C153.979 217.215 153.953 216.866 153.953 216.517ZM154.25 213.275L154.266 214.548H153.008C152.711 214.548 152.453 214.582 152.234 214.65C152.016 214.717 151.836 214.814 151.695 214.939C151.555 215.058 151.451 215.199 151.383 215.361C151.32 215.522 151.289 215.699 151.289 215.892C151.289 216.085 151.333 216.259 151.422 216.415C151.51 216.566 151.638 216.686 151.805 216.775C151.971 216.858 152.167 216.9 152.391 216.9C152.729 216.9 153.023 216.832 153.273 216.697C153.523 216.561 153.716 216.394 153.852 216.197C153.992 215.999 154.065 215.811 154.07 215.634L154.664 216.587C154.581 216.801 154.466 217.022 154.32 217.251C154.18 217.48 154 217.697 153.781 217.9C153.562 218.098 153.299 218.262 152.992 218.392C152.685 218.517 152.32 218.579 151.898 218.579C151.362 218.579 150.875 218.473 150.438 218.259C150.005 218.04 149.661 217.741 149.406 217.361C149.156 216.975 149.031 216.538 149.031 216.048C149.031 215.605 149.115 215.212 149.281 214.868C149.448 214.525 149.693 214.236 150.016 214.001C150.344 213.762 150.753 213.582 151.242 213.462C151.732 213.337 152.299 213.275 152.945 213.275H154.25ZM162.133 209.97V218.423H159.875V209.97H162.133ZM164.852 209.97V211.712H157.195V209.97H164.852ZM167.555 212.478H170.008C170.779 212.478 171.435 212.605 171.977 212.861C172.523 213.111 172.94 213.46 173.227 213.907C173.518 214.355 173.664 214.874 173.664 215.462C173.664 215.889 173.581 216.285 173.414 216.65C173.253 217.009 173.016 217.322 172.703 217.587C172.391 217.853 172.008 218.058 171.555 218.204C171.102 218.35 170.586 218.423 170.008 218.423H166.148V209.97H168.406V216.673H170.008C170.346 216.673 170.617 216.618 170.82 216.509C171.029 216.394 171.18 216.246 171.273 216.064C171.372 215.881 171.422 215.683 171.422 215.47C171.422 215.246 171.372 215.043 171.273 214.861C171.18 214.673 171.029 214.522 170.82 214.407C170.617 214.293 170.346 214.236 170.008 214.236H167.555V212.478ZM178.773 214.947H176.781C176.786 214.478 176.823 214.074 176.891 213.736C176.964 213.392 177.086 213.082 177.258 212.806C177.435 212.53 177.669 212.256 177.961 211.986C178.206 211.767 178.419 211.558 178.602 211.361C178.784 211.163 178.927 210.96 179.031 210.751C179.135 210.538 179.188 210.301 179.188 210.04C179.188 209.738 179.141 209.488 179.047 209.29C178.958 209.087 178.823 208.933 178.641 208.829C178.464 208.725 178.24 208.673 177.969 208.673C177.745 208.673 177.536 208.723 177.344 208.822C177.151 208.915 176.992 209.061 176.867 209.259C176.747 209.457 176.685 209.717 176.68 210.04H174.414C174.43 209.327 174.594 208.738 174.906 208.275C175.224 207.806 175.648 207.46 176.18 207.236C176.711 207.006 177.307 206.892 177.969 206.892C178.698 206.892 179.323 207.012 179.844 207.251C180.365 207.486 180.763 207.832 181.039 208.29C181.315 208.743 181.453 209.295 181.453 209.947C181.453 210.4 181.365 210.803 181.188 211.157C181.01 211.506 180.779 211.832 180.492 212.134C180.206 212.436 179.891 212.749 179.547 213.072C179.25 213.337 179.047 213.616 178.938 213.907C178.833 214.199 178.779 214.545 178.773 214.947ZM176.547 217.361C176.547 217.027 176.661 216.751 176.891 216.532C177.12 216.308 177.427 216.197 177.812 216.197C178.193 216.197 178.497 216.308 178.727 216.532C178.961 216.751 179.078 217.027 179.078 217.361C179.078 217.683 178.961 217.957 178.727 218.181C178.497 218.405 178.193 218.517 177.812 218.517C177.427 218.517 177.12 218.405 176.891 218.181C176.661 217.957 176.547 217.683 176.547 217.361Z" fill="#41D481"/>
</g>
<path fill-rule="evenodd" clip-rule="evenodd" d="M42 103.321V79.6786C42 79.5119 42.0747 79.3571 42.2242 79.2143C42.3737 79.0714 42.5356 79 42.71 79H46.858C47.0573 79 47.2254 79.0714 47.3624 79.2143C47.4995 79.3571 47.568 79.5119 47.568 79.6786V95.1429L52.0896 90.1429C52.3886 89.8571 52.7 89.7143 53.0238 89.7143H57.2092C57.533 89.7143 57.7572 89.8333 57.8818 90.0714C58.0064 90.3095 57.969 90.5595 57.7697 90.8214L52.837 96.2857L58.816 102.929C59.0153 103.167 59.0527 103.405 58.9281 103.643C58.8036 103.881 58.5794 104 58.2555 104H53.2107C52.9865 104 52.7996 103.905 52.6502 103.714L47.568 97.5V103.321C47.568 103.488 47.4995 103.643 47.3624 103.786C47.2254 103.929 47.0573 104 46.858 104H42.71C42.5356 104 42.3737 103.929 42.2242 103.786C42.0747 103.643 42 103.488 42 103.321ZM65.9434 84.2767C65.2683 84.7589 64.4465 85 63.478 85C62.5094 85 61.6876 84.7589 61.0126 84.2767C60.3375 83.7945 60 83.2076 60 82.5157C60 81.8239 60.3375 81.2317 61.0126 80.739C61.6876 80.2463 62.5094 80 63.478 80C64.4465 80 65.2757 80.2463 65.9654 80.739C66.6551 81.2317 67 81.8239 67 82.5157C67 83.2076 66.6478 83.7945 65.9434 84.2767ZM61 104.288V90.7125C61 90.5125 61.0743 90.3438 61.223 90.2063C61.3716 90.0687 61.5541 90 61.7703 90H66.2297C66.4459 90 66.6284 90.0687 66.777 90.2063C66.9257 90.3438 67 90.5125 67 90.7125V104.288C67 104.463 66.9189 104.625 66.7568 104.775C66.5946 104.925 66.4189 105 66.2297 105H61.7703C61.5811 105 61.4054 104.925 61.2432 104.775C61.0811 104.625 61 104.463 61 104.288ZM74.7709 104.634L68.0847 90.9878C67.9661 90.7439 67.9721 90.5183 68.1025 90.311C68.2329 90.1037 68.4285 90 68.6893 90H72.6726C72.9808 90 73.1942 90.1341 73.3127 90.4024L75.4111 95.378H75.5178L77.7584 90.4024C77.8532 90.2073 77.9599 90.0915 78.0785 90.0549C78.197 90.0183 78.4104 90 78.7186 90H82.3107C82.5715 90 82.7671 90.1037 82.8975 90.311C83.0279 90.5183 83.0339 90.7439 82.9153 90.9878L76.158 104.634C76.0157 104.878 75.8142 105 75.5533 105H75.3755C75.1147 105 74.9132 104.878 74.7709 104.634ZM90.9434 84.2767C90.2683 84.7589 89.4465 85 88.478 85C87.5094 85 86.6876 84.7589 86.0126 84.2767C85.3375 83.7945 85 83.2076 85 82.5157C85 81.8239 85.3375 81.2317 86.0126 80.739C86.6876 80.2463 87.5094 80 88.478 80C89.4465 80 90.2757 80.2463 90.9654 80.739C91.6551 81.2317 92 81.8239 92 82.5157C92 83.2076 91.6478 83.7945 90.9434 84.2767ZM86 104.288V90.7125C86 90.5125 86.0743 90.3438 86.223 90.2063C86.3716 90.0687 86.5541 90 86.7703 90H91.2297C91.4459 90 91.6284 90.0687 91.777 90.2063C91.9257 90.3438 92 90.5125 92 90.7125V104.288C92 104.463 91.9189 104.625 91.7568 104.775C91.5946 104.925 91.4189 105 91.2297 105H86.7703C86.5811 105 86.4054 104.925 86.2432 104.775C86.0811 104.625 86 104.463 86 104.288Z" fill="#41D481"/>
<defs>
<clipPath id="clip0_0_10040">
<rect width="162" height="40" fill="white" transform="translate(41.4619 194.538)"/>
</clipPath>
</defs>
</svg>
